<svg id="Capa_1" data-name="Capa 1" xmlns="http://www.w3.org/2000/svg" viewBox="0 0 378.42 353.24"><defs><style>.cls-1{fill:#34c3ed}</style></defs><title>icon</title><path class="cls-1" d="M77.62 275a63.54 63.54 0 0 1 42.59-102.5 100.59 100.59 0 0 0-13.08-47.67L79.77 76.69 21.7 176.33a137.55 137.55 0 0 0-.7 137.18l16.9 29.73z" transform="translate(-3 -4.33)"/><ellipse class="cls-1" cx="127.54" cy="235.65" rx="52.66" ry="52.64" transform="rotate(-89.7 123.879 235.003)"/><path class="cls-1" d="M176.14 72.6a63.53 63.53 0 0 1 68.48 87.4 100.5 100.5 0 0 0 47.95 11.95l55.35-.28-58.38-99.48A137.46 137.46 0 0 0 170.35 4.33l-34.18.17z" transform="translate(-3 -4.33)"/><path class="cls-1" d="M140.22 109.38A52.65 52.65 0 1 1 160 181.19a52.64 52.64 0 0 1-19.78-71.81zM302.47 258.69a63.51 63.51 0 0 1-109.91 15.37 100.55 100.55 0 0 0-34.4 35.48l-27.55 48L245.9 357a137.46 137.46 0 0 0 118.51-69l17-29.66z" transform="translate(-3 -4.33)"/><path class="cls-1" d="M288.71 209.15a52.65 52.65 0 1 1-72-19 52.67 52.67 0 0 1 72 19z" transform="translate(-3 -4.33)"/></svg>