<svg id="Capa_1" data-name="Capa 1" xmlns="http://www.w3.org/2000/svg" viewBox="0 0 2085.88 356.45"><defs><style>.cls-1{fill:#fff}.cls-2{fill:#34c3ed}.cls-3{fill:none;stroke:#41474b;stroke-miterlimit:10;stroke-width:25px}</style></defs><title>LOGO_1(2-White)</title><path class="cls-1" d="M551.39 360.78v-7.48h31.07V253.07H498V353.3h31.07v7.48H426.79v-7.48h31.07V150.9h-31.07v-7.48h102.32v7.48H498v94.69h84.12V150.9h-31.04v-7.48H653.4v7.48h-31.08v202.4h31.08v7.48zM784.28 341.41q-18.52 19.37-47.39 19.37a71.38 71.38 0 0 1-24.17-3.72A62.77 62.77 0 0 1 692 345.52l-15.06 12.68h-5.34v-61.57h9.1q4.71 23.36 19.15 40.17t38 16.82q20.08 0 33.58-12.5 13.81-12.8 13.81-30.92 0-19.68-15.38-29-16.32-9.68-40.8-16.24-29.51-7.81-42.68-22.8-13.18-15.3-13.18-40 0-25.61 16-42.17 16.63-16.55 41.12-16.55a83.75 83.75 0 0 1 24.48 3.44 62.93 62.93 0 0 1 21 11.2l11.93-11.77h6v58.48h-10q-2.83-23-17.26-38.93-14.44-15.25-36.72-15.26A39.54 39.54 0 0 0 702 161.2q-11.62 10.62-11.61 25.3 0 17.81 11.93 23.11 12.24 5.94 35.47 11.87 36.72 9.37 50.53 24.67 14.12 15.93 14.12 44.66.05 31.56-18.16 50.6zM984.84 358.2L972 344a69.64 69.64 0 0 1-24.48 12.81 105.28 105.28 0 0 1-28.87 4q-38.61 0-67.79-32.39-29.51-32.07-29.5-75.36 0-44.84 29.19-77.23 29.82-32.38 70.93-32.39 15.69 0 27.62 4.3 12.55 4.74 20.4 11.27l12.24-12.7h7.22V206h-9.1q-6.59-32.7-23.85-43.91-17.27-11.52-35.78-11.52-27 0-39.55 18.8-13.18 19.43-13.18 54.2v57q0 35.72 13.5 54.2 13.49 18.8 41.11 18.8 18.52 0 35.15-12.15 16.32-12.14 25.42-46.4h9.1v63.18z" transform="translate(-3 -4.33)"/><path class="cls-2" d="M1149.33 251.51q0-17.17 3.75-25.24t8.17-11.85q9.64-8.24 28.15-8.33 25.88.09 33.37 17.25 4.31 9.87 4.31 26.27v16.74h-23v-16.82q0-14.5-2.1-19.62t-5.05-6.78a15 15 0 0 0-7.49-1.68q-9.43 0-13 6.74t-3.57 21.25v65.41q0 17.17 3.24 24t12.49 6.82q9.25 0 12.37-6.87t3.12-24V298h23.27v16.6q0 23.78-8.57 35t-29.91 11.2q-21.35 0-30.42-11.55t-9.08-34.81zM1253.53 248.93q0-25.75 12.26-35.37 9.64-7.55 28-7.55 26.79 0 34.28 16.65 4.43 9.87 4.43 26.27v66.61q0 23.61-8.74 34.38t-30.59 10.77q-21.86 0-30.77-10.82t-8.91-34.34zm55.51-1q0-14.5-3.06-20.56t-12.37-6q-9.31 0-12.94 6.18t-3.67 20.27v67.9q0 17.25 3.18 23.48t12.83 6.22q9.64 0 12.83-6.31t3.18-23.39zM1424.6 207.9h20.77V359h-17.25l-44.84-103.69 1.36 38.11V359H1363V207.9h17.71L1427 310.74l-2.4-43.74zM1475.79 254.68a36.72 36.72 0 0 1-2-13q0-16.39 8-26.05t30.59-9.66q29.06 0 34.28 21.12 2.27 9.1 2.27 22.92V259h-22.48v-10.15q0-14.42-1.93-19.4t-4.77-6.61a14.74 14.74 0 0 0-7.38-1.63q-8.51 0-12.26 4.72t-3.75 14q0 9.27 3.41 13.56a49.54 49.54 0 0 0 8.4 8.2q5 3.91 5.56 4.42l13.62 10.9q24.52 19.4 24.52 43.43 0 19.57-8 29.92t-30.48 10.34q-27.13 0-34.39-18-4.2-10.13-4.2-26.52v-15.57h22.82V316q0 16.57 3.18 23t11.81 6.48q8.62 0 11.92-3t3.8-9.32q.52-6.26.51-14.08 0-15.71-18.28-29.53l-13.05-9.87q-17.51-13.58-21.72-25zM1631.42 207.9h23.38v112.28q0 21.2-8.8 30.9t-30.48 9.7q-21.69 0-30.65-9.7t-9-30.9V207.9h23.5v111.85q0 15.11 1.65 18.07a19.21 19.21 0 0 0 3.46 4.68q3.17 3.27 11 3.26t11.58-3.61q3.75-3.61 4-10.73t.29-11.59zM1686.36 207.9h23.5v136.4h36.89V359h-60.39zM1752.54 207.9h66v14.76h-20.55V359h-23.38V222.66h-22zM1839.83 207.9h23.5V359h-23.5zM1959.48 207.9h20.77V359H1963l-44.84-103.69 1.36 38.11V359h-21.68V207.9h17.71l46.31 102.84-2.38-43.74zM2010.67 250.65q0-33.3 20.89-41.37a51.65 51.65 0 0 1 17.94-3.18q18.27 0 26.45 5.88a26.39 26.39 0 0 1 10.56 15.53 99.43 99.43 0 0 1 2.38 23.48v11.67h-22.7V243q0-11.59-3.12-16.57t-12.26-5q-9.14 0-12.89 6.27t-3.75 22.15v63.55q0 18.11 3.29 25.19t13 7.08q9.71 0 13.29-7.3t3.57-25.32V293.4h-16.23v-13.74h37.8V359h-12.37l-3.18-11.67q-6.7 13.13-25.6 13.13t-28-11.11q-9.09-11.12-9.08-35.32z" transform="translate(-3 -4.33)"/><path class="cls-3" d="M1071.65 141.74v212.18"/><path class="cls-2" d="M77.62 275a63.54 63.54 0 0 1 42.59-102.5 100.59 100.59 0 0 0-13.08-47.67L79.77 76.69 21.7 176.33a137.55 137.55 0 0 0-.7 137.18l16.9 29.73z" transform="translate(-3 -4.33)"/><ellipse class="cls-2" cx="127.54" cy="235.65" rx="52.66" ry="52.64" transform="rotate(-89.7 123.879 235.003)"/><path class="cls-2" d="M176.14 72.6a63.53 63.53 0 0 1 68.48 87.4 100.5 100.5 0 0 0 47.95 11.95l55.35-.28-58.38-99.48A137.46 137.46 0 0 0 170.35 4.33l-34.18.17z" transform="translate(-3 -4.33)"/><path class="cls-2" d="M140.22 109.38A52.65 52.65 0 1 1 160 181.19a52.64 52.64 0 0 1-19.78-71.81zM302.47 258.69a63.51 63.51 0 0 1-109.91 15.37 100.55 100.55 0 0 0-34.4 35.48l-27.55 48L245.9 357a137.46 137.46 0 0 0 118.51-69l17-29.66z" transform="translate(-3 -4.33)"/><path class="cls-2" d="M288.71 209.15a52.65 52.65 0 1 1-72-19 52.67 52.67 0 0 1 72 19z" transform="translate(-3 -4.33)"/></svg>